<?xml version="1.0" standalone="no"?>
<!DOCTYPE svg PUBLIC "-//W3C//DTD SVG 1.1//EN" "http://www.w3.org/Graphics/SVG/1.1/DTD/svg11.dtd" >
<svg xmlns="http://www.w3.org/2000/svg">
<metadata>Generated by IcoMoon</metadata>
<defs>
<font id="icomoon" horiz-adv-x="1024">
<font-face units-per-em="1024" ascent="960" descent="-64" />
<missing-glyph horiz-adv-x="1024" />
<glyph unicode="&#x20;" horiz-adv-x="512" d="" />
<glyph unicode="&#xe600;" glyph-name="alert" horiz-adv-x="951" d="M769.705 370.854c-25.776 14.142-88.11 61.57-94.986 186.627 0 0.519 0.072 1.038 0.072 1.571 0 4.829-0.303 9.558-0.793 14.228 0 0.231-0.029 0.404-0.029 0.62h-0.072c-5.709 51.090-40.35 93.328-87.201 110.094 0.447 2.566 0.807 5.19 0.807 7.871 0 25.112-20.37 45.496-45.511 45.496-25.112 0-45.496-20.384-45.496-45.496 0-2.681 0.332-5.305 0.807-7.871-46.837-16.766-81.507-59.004-87.187-110.094h-0.072c0-0.216-0.029-0.389-0.029-0.62-0.519-4.671-0.807-9.399-0.807-14.228 0-0.533 0.058-1.052 0.058-1.571-6.876-125.072-69.21-172.485-94.972-186.627-5.738-3.171-10.697-10.408-10.697-16.953v-28.125c0-6.545 5.276-11.864 11.821-11.864h453.162c6.53 0 11.835 5.319 11.835 11.864v28.125c0 6.559-4.959 13.796-10.711 16.953zM457.054 270.952c4.743-42.772 40.912-76.029 84.938-76.029s80.181 33.272 84.953 76.029h-169.891z" />
<glyph unicode="&#xe601;" glyph-name="board" horiz-adv-x="965" d="M444.22 744.538h208.487v-69.677h-208.487v69.677zM621.981 304.289l-48.536-6.159 6.159 48.536 194.13 194.144 42.377-42.364zM786.343 553.429l35.464 35.464 42.376-42.376-35.464-35.464-42.376 42.376zM648.084 277.968l-111.075-17.973 15.309 108.411 200.439 200.479v135.425h-67.624v-57.183h-273.61v57.183h-67.379v-475.68h408.613v154.051z" />
<glyph unicode="&#xe602;" glyph-name="dolar" horiz-adv-x="967" d="M513.005 693.55c-139.478 0-252.503-113.065-252.503-252.503 0-139.451 113.026-252.517 252.503-252.517 139.451 0 252.49 113.065 252.49 252.517s-113.039 252.503-252.49 252.503zM527.876 325.165v-27.51h-29.254v24.218c-22.684 0.397-39.341 5.579-49.44 9.954l-4.428 1.917 3.728 37.794 9.068-5.75c11.845-7.495 24.985-11.289 41.073-11.792v79.911c-23.861 12.995-54.067 30.933-54.067 64.273 0 30.405 21.032 54.014 54.067 61.391v21.587h29.254v-19.353c9.386-0.476 24.165-2.115 38.178-7.495l5.076-1.943-5.988-34.423-8.17 4.653c-6.451 3.662-16.828 6.147-29.083 7.006v-72.416c22.010-11.911 52.15-29.982 52.15-66.811-0.013-32.216-19.393-56.248-52.164-65.211zM479.467 498.802c0-9.941 7.363-17.635 19.155-25.209v52.626c-9.954-3.794-19.155-11.58-19.155-27.417zM527.876 416.551v-56.698c9.082 4.904 17.251 14.33 17.251 32.401 0 8.262-5.129 15.665-17.251 24.297z" />
<glyph unicode="&#xe603;" glyph-name="location" horiz-adv-x="1318" d="M820.325 546.247c0 120.461-97.653 218.098-218.13 218.098-120.461 0-218.098-97.637-218.098-218.098 0-34.87 8.353-67.696 22.903-96.955h-0.238l1.474-2.552c3.138-6.134 6.578-12.030 10.239-17.784l183.703-291.342 183.482 291.009c3.772 5.88 7.307 11.967 10.54 18.228l1.379 2.425h-0.238c14.598 29.275 22.983 62.101 22.983 96.971zM602.227 479.423c-38.754 0-70.185 31.383-70.185 70.169 0 38.754 31.415 70.169 70.185 70.169 38.722 0 70.153-31.415 70.153-70.169 0-38.785-31.415-70.169-70.153-70.169z" />
<glyph unicode="&#xe604;" glyph-name="phone" horiz-adv-x="1217" d="M862.253 312.086c-21.908 21.936-54.948 45.072-99.449 60.742v-0.029c0 0-24.677 13.716-38.364 0 0 0-32.155-60.928-46.17-60.928-12.303 8.207-16.484 10.947-18.697 12.602l-0.057-0.071c-20.466 14.229-44.301 37.793-66.879 62.626-52.036 59.272-90.229 125.196-90.229 125.196l-0.014 0.029c33.697 17.797 72.146 47.783 72.146 47.783 8.349 6.365 4.967 37.379 4.767 39.22-7.964 34.41-24.491 79.41-61.827 112.037 0 0-4.182 3.896-11.218 3.896-7.050 0-93.84 0-107.783-97.365-13.744-96.095 126.651-264.221 144.106-283.488 43.487-45.785 134.287-129.591 198.783-153.297l1.499-0.542h2.712c12.203 0 119.672 3.311 123.155 119.672-0.014-0.014-1.013 6.451-6.48 11.917z" />
<glyph unicode="&#xe605;" glyph-name="user" horiz-adv-x="887" d="M510.818 409.128c0-57.415-46.544-103.96-103.96-103.96s-103.96 46.544-103.96 103.96c0 57.415 46.544 103.96 103.96 103.96s103.96-46.544 103.96-103.96zM558.858 237.075c-12.736 31.257-48.515 44.792-70.533 64.435-22.666-17.193-50.836-27.512-81.467-27.512-31.797 0-60.97 11.052-84.057 29.455-21.802-19.719-55.423-35.607-67.964-66.486-8.894-20.431-13.923-42.957-13.923-66.702v-48.364h331.879v48.364c0 23.767-5.019 46.335-13.934 66.81z" />
<glyph unicode="&#xe606;" glyph-name="cart" horiz-adv-x="1169" d="M477.189 149.628c0-33.827-27.422-61.249-61.249-61.249s-61.249 27.422-61.249 61.249c0 33.827 27.422 61.249 61.249 61.249s61.249-27.422 61.249-61.249zM797.66 149.628c0-33.827-27.422-61.249-61.249-61.249s-61.249 27.422-61.249 61.249c0 33.827 27.422 61.249 61.249 61.249s61.249-27.422 61.249-61.249zM1105.476 762.405h-183.484l-149.044-407.451h-395.102l-86.092 232.893h-93.446l118.522-320.514h517.381l149.044 407.451h91.422z" />
<glyph unicode="&#xe607;" glyph-name="menulines" horiz-adv-x="1007" d="M350.984 753.53h491.236v-82.012h-491.236v82.012zM157.044 753.53h98.688v-82.012h-98.688v82.012zM350.984 552.495h491.236v-82.012h-491.236v82.012zM157.044 552.495h98.688v-82.012h-98.688v82.012zM350.984 351.448h491.236v-82.012h-491.236v82.012zM157.044 351.448h98.688v-82.012h-98.688v82.012z" />
<glyph unicode="&#xe800;" glyph-name="cart2" d="M734.208 257.536c0-23.753-19.255-43.008-43.008-43.008s-43.008 19.255-43.008 43.008c0 23.753 19.255 43.008 43.008 43.008s43.008-19.255 43.008-43.008zM508.928 257.536c0-23.753-19.255-43.008-43.008-43.008s-43.008 19.255-43.008 43.008c0 23.753 19.255 43.008 43.008 43.008s43.008-19.255 43.008-43.008zM206.848 687.616h129.024l104.448-285.696h277.504l61.44 162.816h65.536l-83.968-225.28h-363.52l-104.448 286.72h-64.512z" />
<glyph unicode="&#xe801;" glyph-name="filter" d="M345.088 625.152l140.288-173.056v-173.056l87.040 43.008v130.048l140.288 173.056z" />
<glyph unicode="&#xe803;" glyph-name="menu" d="M393.216 662.016h433.152v-72.704h-433.152v72.704zM222.208 662.016h87.040v-72.704h-87.040v72.704zM393.216 484.864h433.152v-72.704h-433.152v72.704zM222.208 484.864h87.040v-72.704h-87.040v72.704zM393.216 307.712h433.152v-72.704h-433.152v72.704zM222.208 307.712h87.040v-72.704h-87.040v72.704z" />
<glyph unicode="&#xe804;" glyph-name="menuaccount" d="M623.616 535.040c0-54.292-44.012-98.304-98.304-98.304s-98.304 44.012-98.304 98.304c0 54.292 44.012 98.304 98.304 98.304s98.304-44.012 98.304-98.304zM669.696 372.224c-12.288 29.696-46.080 43.008-66.56 61.44-21.504-16.384-48.128-25.6-76.8-25.6-29.696 0-57.344 10.24-79.872 27.648-20.48-18.432-52.224-33.792-64.512-63.488-8.192-19.456-13.312-40.96-13.312-63.488v-46.080h314.368v46.080c0 22.528-5.12 44.032-13.312 63.488z" />
<glyph unicode="&#xe805;" glyph-name="menuboost" d="M476.16 314.88h102.4v-22.528h-102.4v22.528zM487.424 261.632h79.872v-22.528h-79.872v22.528zM667.648 519.68c-1.024 18.432-5.12 36.864-13.312 54.272-18.432 36.864-47.104 62.464-86.016 73.728-20.48 6.144-41.984 7.168-63.488 4.096-15.36-2.048-29.696-7.168-43.008-15.36-17.408-9.216-32.768-20.48-44.032-36.864-19.456-25.6-29.696-55.296-29.696-88.064 0-16.384 3.072-31.744 9.216-47.104 9.216-23.552 25.6-43.008 45.056-60.416 6.144-5.12 13.312-10.24 19.456-15.36s9.216-11.264 12.288-17.408v-25.6h107.52v25.6c1.024 5.12 4.096 9.216 7.168 13.312 4.096 5.12 9.216 9.216 14.336 13.312 11.264 9.216 21.504 18.432 30.72 28.672 23.552 26.624 35.84 57.344 33.792 93.184zM549.888 433.664h-30.72l15.36 50.176h-54.272l8.192 23.552 17.408 56.32h30.72l-15.36-50.176h53.248l-24.576-79.872z" />
<glyph unicode="&#xe806;" glyph-name="menucontact" d="M688.128 356.864c-15.36 15.36-37.888 30.72-68.608 41.984v0c0 0-17.408 9.216-26.624 0 0 0-22.528-41.984-31.744-41.984-8.192 6.144-11.264 7.168-13.312 8.192v0c-14.336 10.24-30.72 25.6-46.080 43.008-35.84 40.96-62.464 86.016-62.464 86.016s0 0 0 0c23.552 12.288 49.152 32.768 49.152 32.768 6.144 4.096 3.072 25.6 3.072 26.624-5.12 23.552-16.384 54.272-43.008 76.8 0 0-3.072 3.072-8.192 3.072s-64.512 0-73.728-66.56c-9.216-66.56 87.040-181.248 99.328-194.56 29.696-31.744 92.16-89.088 136.192-105.472h3.072c8.192 0 81.92 2.048 84.992 81.92 2.048 0 1.024 5.12-2.048 8.192z" />
<glyph unicode="&#xe807;" glyph-name="menuexplore" d="M709.632 470.528v0l-54.272 65.536-11.264-3.072-24.576 34.816c-1.024 1.024-1.024 1.024-2.048 2.048v0 0c-6.144 6.144-15.36 9.216-24.576 9.216-20.48 0-36.864-16.384-36.864-36.864 0-1.024 0-2.048 0-3.072v0-2.048c0-2.048 1.024-14.336 1.024-16.384l3.072-16.384-7.168-11.264c-3.072 6.144-8.192 11.264-15.36 13.312 0 0-1.024 0-1.024 0-1.024 2.048-4.096 3.072-6.144 3.072v0 0c-2.048 0-4.096 0-7.168-1.024 0 0-1.024 0-1.024 0-7.168-2.048-12.288-7.168-15.36-13.312l-7.168 11.264 3.072 16.384c0 2.048 1.024 14.336 1.024 16.384v2.048c0 1.024 0 2.048 0 3.072 0 20.48-16.384 36.864-36.864 36.864-9.216 0-18.432-4.096-24.576-9.216v0 0c-1.024-1.024-1.024-1.024-2.048-2.048l-24.576-34.816-11.264 3.072-54.272-65.536c-17.408-16.384-28.672-39.936-28.672-66.56 0-50.176 40.96-91.136 91.136-91.136 44.032 0 80.896 31.744 89.088 72.704 1.024-2.048 3.072-4.096 5.12-6.144 0 0 0 0 0 0 2.048-2.048 4.096-3.072 6.144-4.096 0 0 1.024 0 1.024-1.024 2.048-1.024 4.096-2.048 6.144-2.048 1.024 0 1.024 0 2.048 0 2.048-1.024 5.12-1.024 7.168-1.024v0 0c3.072 0 5.12 0 7.168 1.024 1.024 0 1.024 0 2.048 0 2.048 1.024 4.096 1.024 6.144 2.048 0 0 1.024 0 1.024 1.024 2.048 1.024 4.096 2.048 6.144 4.096 0 0 0 0 0 0 2.048 2.048 4.096 4.096 5.12 6.144 8.192-41.984 45.056-72.704 89.088-72.704 50.176 0 91.136 40.96 91.136 91.136 1.024 24.576-10.24 48.128-27.648 64.512zM413.696 343.552c-33.792 0-60.416 26.624-60.416 60.416s26.624 60.416 60.416 60.416c33.792 0 60.416-26.624 60.416-60.416 0-32.768-26.624-60.416-60.416-60.416zM647.168 344.576c-32.768 0-60.416 26.624-60.416 60.416 0 32.768 26.624 60.416 60.416 60.416 32.768 0 60.416-26.624 60.416-60.416s-26.624-60.416-60.416-60.416z" />
<glyph unicode="&#xe808;" glyph-name="menufaq" d="M482.304 324.096h74.752v-74.752h-74.752v74.752zM635.904 547.328c-6.144 31.744-23.552 51.2-41.984 62.464v0c0 0-30.72 26.624-100.352 17.408 0 0-51.2-5.12-76.8-25.6l1.024-13.312 2.048-17.408 2.048-26.624c63.488 39.936 117.76 19.456 120.832 18.432 13.312-7.168 21.504-20.48 21.504-38.912 0-3.072 0-6.144-1.024-8.192v0c0 0 0 0 0-1.024-3.072-19.456-16.384-32.768-30.72-48.128-27.648-31.744-47.104-69.632-45.056-108.544h64.512c-3.072 32.768 17.408 57.344 38.912 80.896v0c1.024 1.024 2.048 2.048 3.072 3.072 3.072 3.072 6.144 7.168 9.216 10.24 39.936 48.128 32.768 95.232 32.768 95.232z" />
<glyph unicode="&#xe809;" glyph-name="menufavorite" d="M647.168 263.68l-120.832 102.4-120.832-102.4v374.784h241.664z" />
<glyph unicode="&#xe80a;" glyph-name="menuhome" d="M736.256 465.408l-38.912-44.032-168.96 138.24-168.96-138.24-38.912 44.032 207.872 172.032 207.872-172.032zM528.384 520.704l-130.048-97.28v-169.984h88.064v111.616h83.968v-111.616h88.064v169.984z" />
<glyph unicode="&#xe80b;" glyph-name="menulanguage" d="M523.264 647.68c-107.52 0-194.56-87.040-194.56-194.56s87.040-194.56 194.56-194.56c107.52 0 194.56 87.040 194.56 194.56s-87.040 194.56-194.56 194.56zM662.528 381.44v0 0c0-1.024-9.216-9.216-8.192-16.384 1.024-4.096-1.024-8.192-4.096-12.288-3.072-3.072-7.168-5.12-11.264-6.144-6.144-1.024-10.24-9.216-11.264-11.264 0 0 0 0 0 0 0-1.024-1.024-6.144-5.12-10.24-3.072-4.096-8.192-8.192-17.408-9.216-1.024 0-3.072 0-3.072 0s1.024 0 1.024 0 1.024 0 2.048-1.024c0 0 1.024-1.024 0-2.048-1.024-2.048-5.12-7.168-15.36-8.192-3.072 0-6.144-2.048-7.168-3.072s-1.024-3.072 0-3.072v-2.048c0 0-1.024-2.048-3.072-3.072-1.024 0-2.048-1.024-3.072-1.024 0 0 0 0 0 0 1.024 0 1.024-1.024 1.024-2.048 0 0 0-1.024-4.096-3.072-1.024-1.024-2.048-1.024-3.072-1.024 1.024-1.024 2.048-1.024 3.072-2.048 0 0-4.096-7.168-18.432-4.096 0 0-5.12 4.096-5.12 9.216 0 3.072 3.072 6.144 7.168 8.192s5.12 3.072 5.12 4.096c0 0-2.048 1.024-3.072 1.024h-1.024v1.024c0 0-2.048 5.12 1.024 10.24 1.024 2.048 3.072 3.072 5.12 4.096 0 4.096 1.024 16.384 5.12 22.528 2.048 4.096 2.048 9.216 0 13.312-1.024 2.048-3.072 3.072-4.096 2.048-4.096 0-8.192 2.048-11.264 5.12-3.072 4.096-5.12 8.192-5.12 11.264-1.024 5.12-5.12 9.216-6.144 10.24-1.024 0-3.072 2.048-4.096 4.096-1.024 3.072 0 6.144 3.072 9.216 0 1.024 0 3.072 0 5.12 0 5.12 2.048 8.192 6.144 11.264 3.072 2.048 3.072 5.12 2.048 10.24 0 1.024-1.024 3.072-1.024 4.096-1.024-1.024-2.048-2.048-4.096-3.072s-5.12 1.024-7.168 4.096c-2.048 1.024-11.264 5.12-13.312 12.288-2.048 6.144-13.312 6.144-13.312 6.144v0c0 0-5.12 0-9.216 7.168 0 0-2.048 1.024-7.168-1.024-6.144-1.024-14.336 2.048-17.408 4.096-6.144 3.072-11.264 7.168-13.312 11.264-3.072 1.024-3.072 2.048-3.072 3.072 0 3.072 0 6.144-15.36 21.504l-13.312 7.168c0 0-2.048 6.144-8.192 7.168-3.072 1.024-6.144 6.144-7.168 10.24-2.048 5.12-3.072 11.264-3.072 17.408 0 7.168 2.048 12.288 7.168 13.312 0 0 0 0 0 0 0 1.024-3.072 2.048-13.312 4.096v0 0c-2.048 1.024-6.144 3.072-6.144 6.144-1.024 0-3.072 1.024-7.168 1.024s-7.168-1.024-9.216-2.048c-1.024-1.024-3.072-2.048-4.096-2.048 0 0 6.144 15.36 39.936 39.936 1.024 0 2.048 1.024 4.096 1.024 0 2.048 4.096 5.12 7.168 6.144s7.168 2.048 12.288 3.072c9.216 1.024 14.336 1.024 18.432 1.024s5.12 0 9.216 3.072l1.024 1.024 3.072 6.144-8.192 3.072 31.744 2.048c1.024 1.024 6.144 3.072 14.336 4.096 8.192 2.048 21.504 4.096 36.864 2.048 1.024 0 2.048 0 3.072 0 0 0 6.144-1.024 15.36-3.072l-16.384-8.192c0 0-1.024 0-1.024 0-9.216-1.024-9.216-2.048-9.216-2.048s0-1.024 2.048-2.048c5.12-3.072 14.336-7.168 26.624-11.264 10.24-3.072 18.432-5.12 19.456-5.12s3.072-1.024 3.072-2.048c0-1.024 0-2.048-2.048-3.072-1.024-1.024-3.072-2.048-6.144-3.072-4.096-1.024-5.12-2.048-6.144-3.072-2.048-1.024-2.048-1.024-5.12 0l-1.024-5.12c0 0 0 0 0-1.024 1.024-2.048 2.048-3.072 3.072-3.072 3.072 0 6.144 4.096 7.168 5.12l1.024 1.024h1.024c1.024 0 7.168-2.048 15.36-13.312 1.024 0 3.072 0 5.12-1.024 3.072-1.024 7.168-4.096 7.168-10.24 0-4.096 1.024-5.12 1.024-6.144 0 0 1.024 0 2.048 0s1.024 0 2.048 0c0 0 4.096-1.024 5.12-4.096 1.024-2.048 1.024-3.072 0-5.12 0-1.024-1.024-2.048-2.048-2.048-2.048 0-3.072 1.024-5.12 2.048-2.048 2.048-5.12 4.096-10.24 3.072-1.024 0-1.024 0-2.048 0 0 0 0-1.024 0-1.024 0-2.048-2.048-3.072-4.096-4.096s-6.144-2.048-11.264-4.096v0c-1.024 0-5.12-1.024-6.144 1.024 0 1.024-1.024 1.024-1.024 2.048-3.072-1.024-7.168-3.072-8.192-7.168v-1.024h-1.024c-3.072-1.024-9.216-2.048-9.216-4.096 0-1.024-1.024-2.048-2.048-3.072-1.024-3.072-3.072-5.12-3.072-10.24 0-1.024 0-2.048-1.024-3.072-1.024-2.048-3.072-3.072-7.168-3.072-3.072 0-6.144-1.024-8.192-3.072-1.024-2.048 0-7.168 3.072-13.312v0 0c0 0 0-2.048 0-4.096s-1.024-5.12-3.072-6.144c-2.048-1.024-5.12 2.048-9.216 9.216-3.072 6.144-6.144 9.216-10.24 9.216-5.12 1.024-9.216-4.096-9.216-4.096l-1.024-1.024h-1.024c-3.072 1.024-12.288 3.072-15.36-1.024 0 0-1.024-1.024-2.048-1.024-2.048-2.048-5.12-5.12-6.144-8.192-1.024-4.096 0-8.192 4.096-14.336 2.048-4.096 5.12-5.12 7.168-5.12 4.096 0 7.168 6.144 8.192 8.192v1.024h1.024c0 0 3.072 1.024 6.144 1.024 4.096 0 7.168 0 8.192-2.048 0-1.024 1.024-2.048 1.024-4.096 0-1.024-1.024-3.072-2.048-5.12 2.048-1.024 1.024-3.072 1.024-4.096-1.024-2.048 0-2.048 0-2.048s1.024-1.024 7.168 0c1.024 0 3.072 1.024 5.12-1.024 3.072-2.048 4.096-8.192 3.072-18.432 1.024-1.024 2.048-3.072 4.096-4.096 1.024 0 3.072 0 4.096 2.048 2.048 2.048 4.096 4.096 7.168 3.072 1.024 0 1.024-1.024 2.048-2.048 4.096 4.096 10.24 9.216 18.432 7.168 2.048-1.024 4.096-1.024 6.144-2.048 6.144-2.048 10.24-4.096 16.384-2.048 4.096 1.024 8.192-1.024 14.336-6.144 3.072-3.072 5.12-5.12 6.144-7.168 3.072 0 10.24 1.024 15.36-3.072 3.072-3.072 4.096-7.168 4.096-12.288 0-1.024 0-3.072 0-4.096 1.024 0 2.048 1.024 3.072 1.024 5.12 0 8.192-3.072 9.216-4.096 1.024 0 4.096 0 6.144 0 6.144-1.024 9.216-3.072 9.216-6.144 0 0 0 0 0-1.024 0 0 0 0 1.024 0s2.048 1.024 3.072 0c1.024-1.024 1.024-3.072 0-5.12-2.048-1.024-3.072-4.096-5.12-9.216z" />
<glyph unicode="&#xe80c;" glyph-name="menunotification" d="M531.456 259.584c32.768 0 60.416 26.624 60.416 59.392h-121.856c1.024-32.768 27.648-59.392 61.44-59.392zM693.248 384.512c-18.432 10.24-62.464 44.032-67.584 132.096 0 0 0 1.024 0 1.024 0 3.072 0 7.168-1.024 10.24 0 0 0 0 0 0v0c-4.096 35.84-28.672 66.56-61.44 77.824 0 2.048 1.024 4.096 1.024 5.12 0 17.408-14.336 32.768-32.768 32.768-17.408 0-32.768-14.336-32.768-32.768 0-2.048 0-4.096 1.024-5.12-32.768-12.288-58.368-41.984-61.44-77.824v0c0 0 0 0 0 0 0-3.072-1.024-7.168-1.024-10.24 0 0 0-1.024 0-1.024-5.12-89.088-49.152-122.88-67.584-132.096-4.096-2.048-7.168-7.168-7.168-12.288v-20.48c0-5.12 4.096-8.192 8.192-8.192h321.536c5.12 0 8.192 4.096 8.192 8.192v20.48c0 5.12-3.072 10.24-7.168 12.288z" />
<glyph unicode="&#xe80d;" glyph-name="menuorder" d="M404.48 646.656h156.672v-52.224h-156.672v52.224zM538.624 314.88l-36.864-4.096 5.12 35.84 146.432 146.432 31.744-31.744zM662.333 502.731l26.791 26.791 31.859-31.859-26.791-26.791-31.859 31.859zM558.080 295.424l-83.968-13.312 12.288 80.896 150.528 151.552v101.376h-51.2v-43.008h-205.824v43.008h-50.176v-357.376h307.2v115.712z" />
<glyph unicode="&#xe80e;" glyph-name="menupay" d="M524.288 646.656c-108.544 0-195.584-88.064-195.584-195.584s87.040-195.584 195.584-195.584c107.52 0 195.584 88.064 195.584 195.584s-88.064 195.584-195.584 195.584zM535.552 360.96v-21.504h-22.528v18.432c-17.408 0-30.72 4.096-37.888 8.192l-4.096 2.048 3.072 29.696 7.168-4.096c9.216-6.144 19.456-9.216 31.744-9.216v61.44c-18.432 10.24-41.984 23.552-41.984 50.176 0 23.552 16.384 41.984 41.984 47.104v16.384h22.528v-15.36c7.168 0 18.432-2.048 29.696-6.144l4.096-1.024-5.12-26.624-6.144 4.096c-5.12 3.072-13.312 5.12-22.528 5.12v-56.32c17.408-9.216 39.936-23.552 39.936-52.224 0-24.576-14.336-43.008-39.936-50.176zM497.664 495.104c0-8.192 6.144-13.312 14.336-19.456v40.96c-7.168-3.072-14.336-9.216-14.336-21.504zM535.552 431.616v-44.032c7.168 4.096 13.312 11.264 13.312 25.6 0 6.144-4.096 12.288-13.312 18.432z" />
<glyph unicode="&#xe80f;" glyph-name="menuproduct" d="M356.352 544.256v-288.768h339.968v288.768h-339.968zM434.176 630.272l-77.824-69.632h140.288l15.36 69.632zM619.52 630.272h-77.824l15.36-69.632h140.288z" />
<glyph unicode="&#xe810;" glyph-name="menureturn" d="M696.32 401.92c-35.84 172.032-207.872 148.48-207.872 148.48v86.016l-143.36-141.312 142.336-142.336v102.4c0 0 104.448-3.072 141.312-34.816 0 0 0 0 1.024 0 73.728-67.584-4.096-168.96-4.096-168.96 87.040 57.344 70.656 150.528 70.656 150.528z" />
<glyph unicode="&#xe811;" glyph-name="menutrack" d="M667.648 512.512c0 77.824-63.488 141.312-141.312 141.312s-141.312-63.488-141.312-141.312c0-22.528 5.12-44.032 14.336-62.464v0l1.024-2.048c2.048-4.096 4.096-8.192 6.144-11.264l118.784-188.416 119.808 188.416c2.048 4.096 5.12 8.192 7.168 12.288l1.024 2.048c8.192 17.408 14.336 38.912 14.336 61.44zM526.336 469.504c-24.576 0-45.056 20.48-45.056 45.056s20.48 45.056 45.056 45.056c24.576 0 45.056-20.48 45.056-45.056s-19.456-45.056-45.056-45.056z" />
<glyph unicode="&#xe812;" glyph-name="pagination-left" d="M573.44 534.016l-91.136-90.112 91.136-91.136z" />
<glyph unicode="&#xe813;" glyph-name="pagination-right" d="M481.28 352.768l91.136 90.112-91.136 91.136z" />
<glyph unicode="&#xe815;" glyph-name="usericon" d="M628.736 537.088c0-54.292-44.012-98.304-98.304-98.304s-98.304 44.012-98.304 98.304c0 54.292 44.012 98.304 98.304 98.304s98.304-44.012 98.304-98.304zM674.816 373.248c-12.288 29.696-46.080 43.008-66.56 61.44-21.504-16.384-48.128-25.6-76.8-25.6-29.696 0-57.344 10.24-79.872 27.648-20.48-18.432-52.224-33.792-64.512-63.488-8.192-19.456-13.312-40.96-13.312-63.488v-46.080h314.368v46.080c0 22.528-5.12 44.032-13.312 63.488z" />
</font>
</defs>
</svg>
